PathFileType	4	(X/Y/Z)	26_1_21_p0_0-460_filt_butterworth.trc
DataRate	CameraRate	NumFrames	NumMarkers	Units	OrigDataRate	OrigDataStartFrame	OrigNumFrames
59.0	59.0	5	27	m	59.0	230	460
Frame#	Time	RHip			RKnee			RAnkle			RBigToe			RSmallToe			RHeel			LHip			LKnee			LAnkle			LBigToe			LSmallToe			LHeel			Neck			Head			Nose			RShoulder			RElbow			RWrist			RThumb			RIndex			RPinky			LShoulder			LElbow			LWrist			LThumb			LIndex			LPinky			
		X1	Y1	Z1	X2	Y2	Z2	X3	Y3	Z3	X4	Y4	Z4	X5	Y5	Z5	X6	Y6	Z6	X7	Y7	Z7	X8	Y8	Z8	X9	Y9	Z9	X10	Y10	Z10	X11	Y11	Z11	X12	Y12	Z12	X13	Y13	Z13	X14	Y14	Z14	X15	Y15	Z15	X16	Y16	Z16	X17	Y17	Z17	X18	Y18	Z18	X19	Y19	Z19	X20	Y20	Z20	X21	Y21	Z21	X22	Y22	Z22	X23	Y23	Z23	X24	Y24	Z24	X25	Y25	Z25	X26	Y26	Z26	X27	Y27	Z27	
230	3.8983050847457625	0.2883000303164445	0.38155661626374526	1.0745241503776914	0.28549326344427545	-0.08646876940666498	1.0590219340358826	0.27720948928103173	-0.5716767022522234	1.0729607096350529	0.23817701223431284	-0.5240104567099709	0.8627515526803642	0.2880315729064355	-0.5351731646519442	0.8776920294771612	0.25545061427542526	-0.6503184963927285	1.1353294142976562	0.07409500554786404	0.38466510852070623	1.098525608866386	0.07714869744895227	-0.08805870707155283	1.0794649780633003	0.07516808627008915	-0.5538901442894458	1.0512851051895893	0.08318015844204207	-0.5293424936271331	0.8863573627793224	0.02935464214697505	-0.5380421686704298	0.9199833226110402	0.10582369842733681	-0.6087421013724099	1.0902652604613032	0.16924265000248756	0.8878668189201597	1.1584110246056856	0.1595739621906177	1.1758298977499568	1.0374687253251107	0.1528946549712636	1.017894907364025	1.0028197071170104	0.33164011715374137	0.8638446188784876	1.0882068758560661	0.3809238585887431	0.615903050017508	0.9720840065931629	0.20802023298963326	0.7568465106314534	0.910805872469043	0.12990612363124507	0.8124233197702353	0.88037533072435	0.11176500227714148	0.84139315594809	0.8601880567158482	0.1188909474325055	0.7837141272969543	0.8636143328123567	0.033203569691547564	0.8481851789091023	1.1988752564785994	-0.035361952699207985	0.5882909070778743	1.147269862551307	0.019160218806972714	0.7304066114223968	1.0233509719518952	0.07756408156954166	0.8189736513025416	0.9510634850930348	0.07907293968903742	0.8351765752144206	0.9348396463746875	0.05910745853727076	0.7730332992941258	0.9316388843970758	
231	3.915254237288136	0.2881997411393407	0.38168131658627497	1.0740842541780324	0.28522683678984956	-0.08650673022748528	1.0587357695748927	0.27719576403142887	-0.5715733901596494	1.073057481989904	0.23816747881304987	-0.5239615599866484	0.8626572933734575	0.28799660780393954	-0.5352399127941038	0.8773161435045626	0.255451758379314	-0.6502475309937223	1.1353355857410983	0.07388282390962109	0.38483361248674736	1.098523819849326	0.07714882362727293	-0.08806518274725456	1.0794570444112974	0.07517762055120569	-0.5539076388928846	1.0512333783233032	0.08310708480362686	-0.5291271422682798	0.8859814674285671	0.02935984984396431	-0.5380347479774045	0.919951502990024	0.10619446091599191	-0.6084755593461306	1.089887449470377	0.16824443981677262	0.8876358404908289	1.1586841842932218	0.15928773147057984	1.1756391549682297	1.0363307382264482	0.15336751325517717	1.0166617097939055	1.0005500784192025	0.3318188444588709	0.8631710361199698	1.0884107968990988	0.38002384528249233	0.614958710377971	0.9717843756017075	0.2079425370549624	0.7566995835256383	0.9095334002049051	0.1315365412251033	0.8119419013060004	0.8837245990729568	0.11317749059894938	0.842254791000618	0.859359100877324	0.11909229800301505	0.7848413950027772	0.8638528784700976	0.033518937426188854	0.8486151461765363	1.1965003666312843	-0.03557480052684642	0.5872878959725545	1.1467476553967415	0.018503693629392276	0.7306098814770405	1.0228606191438177	0.0766899017918693	0.8214258319134837	0.9523917666265387	0.07664190318193154	0.8350819551289239	0.9378147403856197	0.057587926925897245	0.7764416811537156	0.9310957918454499	
232	3.9322033898305087	0.28821280730662624	0.3818867005721379	1.0737176682183773	0.2849712142165742	-0.08623534889560247	1.058237358553472	0.2771823649362749	-0.5715682475885464	1.0731495702220668	0.23816547730801935	-0.5239050910079869	0.8625560248836361	0.28794388696214857	-0.5348438820283867	0.8772846785385564	0.255451496572439	-0.6501940612175348	1.1353451189383978	0.0737697208793072	0.38490157851793644	1.098563068957564	0.07714912801213433	-0.08807294250734848	1.0794511946016239	0.07520042651984447	-0.5540525094977624	1.0512158821063993	0.08300394985215187	-0.5288651266208075	0.8855369411488987	0.029362958521692996	-0.5379507390370795	0.9198922292815608	0.10644093447525244	-0.6085774800758759	1.0899823434775207	0.16772846472230538	0.8876876576577832	1.1581424884069818	0.15878321066805184	1.1754997985635949	1.034427323263212	0.1539788798777615	1.015889853983121	0.9979128684078175	0.33193176716416084	0.8626370503023484	1.0885548663195677	0.37937810651053583	0.6135710261178126	0.9719153836607028	0.2080931502574106	0.7566712970687327	0.9075627368301598	0.13350532349933686	0.8113148059332559	0.8875706406714579	0.11562776721080961	0.8423859621385097	0.8594896915724192	0.11976850172674364	0.785897015601364	0.8644148130686408	0.03368145311629829	0.8491156310752834	1.194389453365742	-0.03588169730643499	0.5865394779815989	1.1461930747034583	0.01782677145992284	0.7310587112343326	1.0226189587675867	0.07554276173484935	0.8233870916677596	0.9548455190631648	0.07302385041373269	0.8346357093576211	0.9418228447332977	0.0559598428202895	0.7794112725485315	0.9318856316380741	
233	3.9491525423728815	0.2883771953667182	0.38221159965623	1.0733650922367222	0.28473090869132284	-0.08566249869083276	1.0575366056827733	0.2771702241489166	-0.571647195121122	1.0731683441782272	0.23817700388521068	-0.5238333738707212	0.8624569482044424	0.2878958662723397	-0.534175712286899	0.8776464754134664	0.2554490438561232	-0.6501586618828791	1.1353608740458603	0.07374494834526507	0.3848681455353027	1.0986363187496013	0.07714970499869585	-0.08808025906222788	1.0794463785871546	0.07523992029603144	-0.554344451622654	1.0512417794301627	0.08294382474741097	-0.5287285467577404	0.8852885992832586	0.02934800251069313	-0.5378368216839188	0.919836815402568	0.10664957006325805	-0.608967880741022	1.09044822713912	0.16765739063750607	0.887829711610977	1.1573828431150426	0.1581178041986337	1.1752653650288585	1.0320003669984479	0.15463719948995872	1.0156178994405147	0.9952628284359579	0.33197656693988775	0.8623213477422942	1.0886303815490466	0.378832121703556	0.6124717699354969	0.9720414908227201	0.20841178486040968	0.7567069131543162	0.9051564204140226	0.13539650489482435	0.8110486409447865	0.89116430601179	0.1187282120283978	0.8421516982829735	0.8602905104035359	0.12106070208477732	0.7866379586990734	0.8651208170631056	0.03371777062293797	0.8496626805703476	1.1929360755701743	-0.03623673670073697	0.586145577310825	1.1457307878914451	0.016945119514507213	0.731650356412112	1.0227588683981663	0.07440041656538847	0.8248094395851588	0.9577670400597116	0.06906126649164845	0.8341122271272795	0.9459205043130025	0.05445025441374489	0.7814824658503695	0.9338551272707534	
234	3.9661016949152543	0.28868358993789434	0.3826417103502635	1.073009967104596	0.28450639221713436	-0.08487649269625885	1.0566481900272982	0.2771603971049901	-0.5717644243459934	1.073134724571801	0.23820425180771496	-0.523745575498335	0.862435835598061	0.2878684136656955	-0.5335290391078178	0.8783559565664334	0.25544341979194074	-0.6501418035426187	1.1353824174427907	0.07380574736917431	0.3847370922165496	1.098730981468071	0.0771503536857222	-0.08808514786071647	1.0794414543085473	0.07530205598412107	-0.5548044629722737	1.0513129736964457	0.08293521264894615	-0.5286612651172176	0.8852188910175095	0.029318960803230674	-0.5377864075015348	0.9197994971452472	0.1069116867718685	-0.6095066205422262	1.0911001252245562	0.16775904968569177	0.8878578731048649	1.1569256691654708	0.1573776044452102	1.1747067826214355	1.029317332982753	0.15525075834158153	1.0157745237935514	0.992919483551201	0.33197770757083644	0.8622395547222296	1.0886498027722555	0.37830901722263677	0.6122540352738015	0.9718868534173244	0.20908464650422984	0.7567889575547642	0.9026121993181393	0.13695647407907885	0.8112691980221083	0.8939722257328906	0.12191950181186828	0.8420207742163214	0.8608229758148298	0.12292616615318173	0.7868405166170303	0.8658401169677343	0.03366193096742881	0.8501824593310141	1.1923845822666763	-0.036540201660694174	0.5861245352908067	1.1454598563945622	0.01568673349430823	0.7323217520178931	1.02308216774844	0.0733381020628334	0.8257418224312852	0.9604025490917454	0.06551664050643088	0.8336868030659901	0.9493094866154123	0.053182879615920206	0.7824566416164661	0.9364839596852013	
